<svg width="32" height="32" viewBox="0 0 32 32" fill="none" xmlns="http://www.w3.org/2000/svg">
<g clip-path="url(#clip0_6_112)">
<path d="M16 32C24.8366 32 32 24.8366 32 16C32 7.16349 24.8366 4.57764e-05 16 4.57764e-05C7.16344 4.57764e-05 0 7.16349 0 16C0 24.8366 7.16344 32 16 32Z" fill="white"/>
<path d="M21.2023 4.91116H17.6579C15.5546 4.91116 13.215 5.79581 13.215 8.84472C13.2253 9.90707 13.215 10.9245 13.215 12.0695H10.7817V15.9417H13.2903V27.0888H17.9V15.8681H20.9426L21.2179 12.0587H17.8206C17.8206 12.0587 17.8282 10.3641 17.8206 9.87198C17.8206 8.66712 19.0743 8.73611 19.1497 8.73611C19.7463 8.73611 20.9063 8.73785 21.2041 8.73611V4.91116H21.2023Z" fill="#3C5A9A"/>
</g>
<defs>
<clipPath id="clip0_6_112">
<rect width="32" height="32" fill="white"/>
</clipPath>
</defs>
</svg>
