<svg width="32" height="32" viewBox="0 0 32 32" fill="none" xmlns="http://www.w3.org/2000/svg">
<path d="M10.9878 0.878636C7.01197 2.21361 3.62111 5.13442 1.73831 8.8168C1.08024 10.0891 0.604976 11.4419 0.321642 12.8396C-0.400401 16.3159 0.102287 20.0162 1.73831 23.1879C2.79852 25.2576 4.32487 27.0943 6.17111 28.5278C7.9168 29.8897 9.94584 30.8931 12.1028 31.4576C14.8173 32.1744 17.7147 32.1564 20.4566 31.5472C22.9335 30.9917 25.2733 29.8269 27.1378 28.1426C29.112 26.3596 30.5195 24.0212 31.269 21.5035C32.0824 18.7529 32.1921 15.8232 31.6803 13.0099C26.562 13.0099 21.4437 13.0099 16.3163 13.0099C16.3163 15.0885 16.3163 17.1761 16.3163 19.2547C19.2776 19.2547 22.248 19.2547 25.2093 19.2547C24.862 21.2527 23.6555 23.0714 21.9372 24.2003C20.8587 24.9082 19.6249 25.3741 18.3453 25.5891C17.0566 25.8041 15.7313 25.831 14.4518 25.5801C13.1448 25.3293 11.9018 24.7917 10.8141 24.0391C9.07756 22.8475 7.75229 21.0914 7.07594 19.1292C6.38132 17.1313 6.37218 14.9003 7.07594 12.9024C7.56035 11.4957 8.37379 10.1876 9.44315 9.13038C10.7593 7.80437 12.4684 6.86362 14.3147 6.47836C15.8958 6.14685 17.5593 6.20957 19.1039 6.66651C20.42 7.06073 21.6265 7.75957 22.6227 8.69137C23.6281 7.71477 24.6243 6.72922 25.6297 5.75263C26.1507 5.22402 26.7082 4.72228 27.22 4.17575C25.7028 2.79598 23.9114 1.685 21.9647 0.986151C18.4733 -0.295065 14.5157 -0.321944 10.9878 0.878636Z" fill="white"/>
<path d="M10.9879 0.878632C14.5158 -0.321948 18.4734 -0.295068 21.983 0.977188C23.9298 1.67603 25.7121 2.78702 27.2384 4.16679C26.7266 4.70436 26.1782 5.21506 25.6481 5.74367C24.6427 6.72026 23.6465 7.70581 22.6411 8.6824C21.6449 7.75061 20.4384 7.0428 19.1223 6.65754C17.5777 6.20061 15.9142 6.13789 14.333 6.46939C12.4868 6.85465 10.7777 7.80437 9.46154 9.12142C8.39218 10.1786 7.57874 11.4867 7.09434 12.8934C5.31208 11.5405 3.52982 10.1786 1.74756 8.82576C3.62121 5.13442 7.01208 2.21361 10.9879 0.878632Z" fill="#E94435"/>
<path d="M0.321642 12.8396C0.604976 11.442 1.08938 10.0891 1.73831 8.8168C3.52057 10.1697 5.30283 11.5315 7.08508 12.8844C6.38132 14.8824 6.39046 17.1133 7.08508 19.1113C5.30283 20.4642 3.52057 21.8261 1.73831 23.179C0.102287 20.0252 -0.400401 16.3159 0.321642 12.8396Z" fill="#F8BB15"/>
<path d="M16.3252 13.0009C21.4435 13.0009 26.5618 13.0009 31.6892 13.0009C32.201 15.8142 32.0913 18.744 31.2779 21.4946C30.5284 24.0122 29.1209 26.3596 27.1467 28.1336C25.4193 26.8165 23.6827 25.4995 21.9644 24.1824C23.6827 23.0625 24.8892 21.2347 25.2365 19.2367C22.2752 19.2367 19.3048 19.2367 16.3435 19.2367C16.3161 17.1671 16.3252 15.0885 16.3252 13.0009Z" fill="#547DBE"/>
<path d="M1.73828 23.1879C3.52054 21.835 5.3028 20.4732 7.08506 19.1203C7.7614 21.0914 9.08667 22.8385 10.8232 24.0301C11.9109 24.7827 13.1539 25.3113 14.4609 25.5712C15.7404 25.822 17.0748 25.7952 18.3544 25.5801C19.634 25.3651 20.8679 24.8992 21.9464 24.1914C23.6738 25.5084 25.4103 26.8255 27.1286 28.1426C25.2641 29.8359 22.9243 30.9917 20.4474 31.5472C17.7146 32.1564 14.8173 32.1744 12.0937 31.4576C9.93667 30.8931 7.90764 29.8897 6.16194 28.5278C4.32484 27.0853 2.7985 25.2486 1.73828 23.1879Z" fill="#34A751"/>
</svg>
